<svg xmlns="http://www.w3.org/2000/svg" version="1.1" xmlns:xlink="http://www.w3.org/1999/xlink" xmlns:svgjs="http://svgjs.dev/svgjs" viewBox="0 0 4.817687019517226 3.6424388514178205"><g transform="matrix(0.8378335354824016,0,0,0.8378335354824016,2.404083577232842,3.2088512085648007)"><rect width="5.522697508761814" height="5.522697508761814" x="-2.7556675154185264" y="-4.417562935467524" fill="#ffffff"></rect><g transform="matrix(1,0,0,1,0,0)"><path d=" M -1.1162222466817056 -1.595369376771225 Q -1.11811923491075 -1.5918478095549324 -1.1201852443579758 -1.5901210771020104 Q -1.1222512538052019 -1.588394344649089 -1.1240801397237972 -1.5871078080982035 Q -1.146231077678289 -1.564964277491359 -1.1787399412344288 -1.5699816264216486 Q -1.2054241045984195 -1.575268915477852 -1.230955466916541 -1.5890220801384243 Q -1.2705730980998329 -1.610363197715174 -1.3162829004853054 -1.6520238982119377 Q -1.3345668214394943 -1.668688178410643 -1.3516991759057553 -1.6864359227868277 Q -1.368831530372016 -1.7041836671630124 -1.3861669572116828 -1.7226087309698643 Q -1.419483172029682 -1.75986500333038 -1.4479572319252791 -1.7945129168759595 Q -1.4764312918208762 -1.829160830421539 -1.49491705059053 -1.8538848414778009 Q -1.5357481777824935 -1.908819521346111 -1.571906171270236 -1.9629406771628557 Q -1.6080641647579785 -2.017061832979601 -1.636637909003367 -2.063122023380848 Q -1.663518971951058 -2.105998689002165 -1.6834931050870618 -2.140611316834579 Q -1.703467238223066 -2.175223944666993 -1.7139613684456123 -2.197914762873312 Q -1.7363166133314512 -2.1690661402702456 -1.757622445195035 -2.1379484358465466 Q -1.7789282770586192 -2.106830731422848 -1.7993209005208468 -2.0689738838477023 Q -1.8396319003880408 -1.9941405805014842 -1.8563401082055002 -1.9156798527994767 Q -1.8730483160229596 -1.837219125097469 -1.863035840205321 -1.7693534465257401 Q -1.8574884874867328 -1.731153618282467 -1.844353181851967 -1.7070400589043642 Q -1.8312178762172011 -1.6829264995262614 -1.8153708237438844 -1.6743900524955615 Q -1.7977629876624213 -1.6649051113503395 -1.778424715454213 -1.6755013950385595 Q -1.7590864432460047 -1.6860976787267796 -1.7415393021273438 -1.718672175477486 Q -1.707393514004544 -1.782060385370753 -1.6934639207781435 -1.85009138148684 Q -1.679534327551743 -1.9181223776029268 -1.684668128175872 -1.9992620355462019 Q -1.684938068301786 -2.005086735738351 -1.6830410800727416 -2.0086083029546438 Q -1.6792471036146528 -2.0156514373872287 -1.6730843609861408 -2.012331707986401 Q -1.6678020101617017 -2.0094862256428345 -1.6671259252889759 -2.002306886589351 Q -1.6600901982040375 -1.954218441569926 -1.6626062800168293 -1.89366954123052 Q -1.6651223618296211 -1.8331206408911138 -1.6792878440267112 -1.77203186029988 Q -1.693453326223801 -1.7109430797086458 -1.7214339026022063 -1.6589999632683297 Q -1.724753632003034 -1.6528372206398176 -1.7278362378752312 -1.6471146739133422 Q -1.7309188437474283 -1.6413921271868666 -1.7351189649523293 -1.6357036316156157 Q -1.7530041485073533 -1.6067188043916507 -1.7831454804510112 -1.593990878061638 Q -1.813286812394669 -1.5812629517316252 -1.8352966074964978 -1.593119128163153 Q -1.8749142386797897 -1.6144602457399029 -1.8933975283335611 -1.6539490796499434 Q -1.927452992102971 -1.7256793061060924 -1.908538866543564 -1.832484061872505 Q -1.9041319692914338 -1.8596424722937568 -1.897761216057751 -1.8851750691698195 Q -1.8913904628240683 -1.910707666045882 -1.8839362454129065 -1.9350886964340164 Q -1.8676050694187993 -1.9864919326225046 -1.8466688620309204 -2.03484661409402 Q -1.8257326546430415 -2.0832012955655355 -1.8039172900090306 -2.1236993185529007 Q -1.7858959018331086 -2.1571542071076806 -1.7668591517901564 -2.1872224985091244 Q -1.7478224017472042 -2.2172907899105687 -1.7272960427799608 -2.24485287596275 Q -1.7289181526513266 -2.265036254261866 -1.7259352311289207 -2.2821710778440094 Q -1.722952309606515 -2.2993059014261523 -1.7167870978621205 -2.310750994879103 Q -1.7091991449459427 -2.3248372637442736 -1.6980568082161889 -2.330761648286214 Q -1.6869144714864353 -2.3366860328281547 -1.6772301616416305 -2.331469315198282 Q -1.6719478108171917 -2.3286238328547153 -1.6663274175563898 -2.3221886809844072 Q -1.6528466621376139 -2.3387799206408992 -1.6368937525248002 -2.3557432538889786 Q -1.6209408429119863 -2.3727065871370576 -1.6061054486318762 -2.389703971540362 Q -1.5829379142524134 -2.4158433164207596 -1.5609219463608788 -2.440899197123679 Q -1.5389059784693442 -2.465955077826598 -1.5226478430174506 -2.4855936376421215 Q -1.500360700442061 -2.512207229579781 -1.4826117215079353 -2.5367219954729308 Q -1.4648627425738094 -2.5612367613660814 -1.4558520484858484 -2.577964205643471 Q -1.4420988838252762 -2.6034955679615925 -1.4482616264537884 -2.60681529736242 Q -1.4583520810454051 -2.6133866538536266 -1.4765716033629683 -2.610138730437072 Q -1.494791125680532 -2.606890807020516 -1.5114201201660717 -2.5971068128259205 Q -1.5280491146516115 -2.5873228186313244 -1.535162820510528 -2.574116941570227 Q -1.538956796968617 -2.5670738071376418 -1.544239147793056 -2.5699192894812084 Q -1.550401890421568 -2.5732390188820364 -1.545659419848957 -2.5820429369227678 Q -1.5394942081045626 -2.5934880303757186 -1.5117204077733868 -2.623961231966034 Q -1.5071141418216736 -2.6282950886759506 -1.5066398947644126 -2.629175480480024 Q -1.4919407051052007 -2.641702803552513 -1.4764304605103058 -2.6441384374754437 Q -1.4609202159154107 -2.646574071398375 -1.4485947306583866 -2.6399346125967194 Q -1.4327476781850699 -2.6313981655660195 -1.4265874046724403 -2.613313613311413 Q -1.4148067378990086 -2.5887939091864984 -1.415283454072152 -2.5731486945286464 Q -1.4175890561638909 -2.5562169433199093 -1.4241616472130383 -2.538744077301403 Q -1.430734238262186 -2.521271211282897 -1.4406934264646691 -2.5027829833973607 Q -1.4634572852132024 -2.4605241768018495 -1.4996653791094046 -2.417556468736329 Q -1.5358734730056065 -2.3745887606708083 -1.5746205888483544 -2.336396339775182 Q -1.6133677046911026 -2.2982039188795556 -1.6446630722385709 -2.2696277055182854 Q -1.6271282766993216 -2.228378088000098 -1.6135540097204601 -2.1966449936664754 Q -1.599979742741599 -2.1649118993328527 -1.5753337104593153 -2.1221033360219845 Q -1.5358596912445686 -2.0519976885530835 -1.4948607773923648 -1.9878857624945132 Q -1.453861863540161 -1.923773836435943 -1.4108638079932394 -1.8665360235917765 Q -1.305163503889306 -1.7232724702631788 -1.2015521493663524 -1.6436063719909597 Q -1.1744643103714318 -1.6221996212196432 -1.1542152988777492 -1.6112919389026377 Q -1.1366074627962863 -1.6018069977574156 -1.1253642071588001 -1.6037015168705777 Q -1.1213002905747973 -1.6049199511110137 -1.1177787233585046 -1.6030229628819694 Q -1.113376764338139 -1.6006517275956638 -1.1162222466817056 -1.595369376771225 M -1.2105683936099312 -2.397871751972176 Q -1.2198786434469837 -2.388798756437532 -1.2322565442606717 -2.3886049228839283 Q -1.2446344450743596 -2.3884110893303245 -1.2537074406090034 -2.397721339167377 Q -1.2655721270773836 -2.409896281261984 -1.2653531231059296 -2.4268654308358575 Q -1.2651341191344754 -2.443834580409731 -1.253675350104257 -2.455001344144677 Q -1.2422165810740387 -2.466168107879623 -1.2284519599589596 -2.464222547405538 Q -1.2146873388438808 -2.462276986931453 -1.205650843971146 -2.4501385454987554 Q -1.1980466952271884 -2.436604258599189 -1.1992943329678394 -2.4221234644197214 Q -1.2005419707084901 -2.4076426702402536 -1.2105683936099312 -2.397871751972176 M -1.0215961955301744 -1.9718406400180075 Q -1.0416490413330566 -1.9522988034818516 -1.0649451213352235 -1.9554281255382466 Q -1.0882412013373903 -1.9585574475946417 -1.1112726515407167 -1.982191158719467 Q -1.1217414925422289 -1.9929337546852965 -1.1321555825508773 -2.0079186380445946 Q -1.1439472676954396 -2.025749963330493 -1.1562999980912771 -2.0549031801644504 Q -1.1686527284871149 -2.084056396998408 -1.178847814524309 -2.1160104299315794 Q -1.1890429005615035 -2.147964462864751 -1.1951052011909566 -2.171379170018122 Q -1.2004878294179302 -2.1926636083092816 -1.2071841766224767 -2.2217438238194216 Q -1.2138805238270232 -2.250824039329561 -1.219281402384951 -2.270694381822898 Q -1.2226250134044856 -2.2855880135274234 -1.2225702624116221 -2.289830300920892 Q -1.2273279692289796 -2.304742182956372 -1.2196530242397854 -2.324090185938924 Q -1.2119780792505912 -2.343438188921476 -1.2005193102203728 -2.3546049526564223 Q -1.1854796758682113 -2.369261330058539 -1.1764066803335675 -2.359951080221487 Q -1.1722191439329628 -2.355654041835155 -1.1702348777183875 -2.345020947855052 Q -1.1622065612053134 -2.3095590509237556 -1.1522031036431415 -2.262757012113445 Q -1.1421996460809694 -2.215954973303134 -1.129377122088629 -2.1684093859320033 Q -1.1165545980962888 -2.120863798560872 -1.1007852553570985 -2.08247333321368 Q -1.0850159126179082 -2.0440828678664884 -1.0661719988151865 -2.0247461951279946 Q -1.0466301622790308 -2.0046933493251125 -1.0315905279268693 -2.0193497267272296 Q -1.0215641050254283 -2.029120644995307 -1.0177094847391672 -2.0538216956298196 Q -1.0138548644529064 -2.078522746264332 -1.0135081081647708 -2.1053905664229653 Q -1.0131613518766351 -2.132258386581598 -1.0136767713005241 -2.1471155176242145 L -1.014009687414868 -2.1761136066450586 Q -1.0139184357600954 -2.1831840856341724 -1.0148923185364287 -2.1899147284220466 Q -1.0158662013127617 -2.1966453712099208 -1.0164911227223778 -2.2030179274656008 Q -1.0178322171963827 -2.208692560987846 -1.0142513518744394 -2.212182174655017 Q -1.0056572751017756 -2.2205572474562265 -0.9958863568336978 -2.2105308245547857 Q -0.9910008976996588 -2.205517613104065 -0.9910921493544314 -2.198447134114951 Q -0.9891991347946285 -2.1807435611457344 -0.9880040429682598 -2.1637561612409066 Q -0.9868089511418913 -2.146768761336079 -0.9863300323799112 -2.129083438697817 Q -0.9845465198058354 -2.1028952909416634 -0.9852787381225973 -2.073557365719579 Q -0.986010956439359 -2.0442194404974954 -0.9937771530833257 -2.017800958525829 Q -1.0015433497272923 -1.9913824765541632 -1.0215961955301744 -1.9718406400180075 M -0.7371615314066373 -2.195867137662128 Q -0.7673533038203928 -2.176259565693218 -0.7940413878891873 -2.2173539225897185 Q -0.8125596503042694 -2.2458683743138206 -0.8200235809804193 -2.294081855196885 Q -0.8274875116565693 -2.3422953360799497 -0.8321631339097826 -2.3917234511213437 Q -0.8377207728667329 -2.437001620797515 -0.8434904491460053 -2.4761801970303545 Q -0.8492601254252776 -2.515358773263194 -0.8623318400712179 -2.5354866215390306 Q -0.875403554717158 -2.5556144698148677 -0.8863061391999031 -2.5485339577149833 Q -0.8946927426481684 -2.5430874099458416 -0.9024141111872496 -2.5237643546003823 Q -0.9104294852942431 -2.503057984133182 -0.9139236846947424 -2.466209774264186 L -0.9173311713774206 -2.4365721455718066 Q -0.9174178840952417 -2.4293615643951907 -0.9179239269854761 -2.4218786558301177 Q -0.9184299698757105 -2.414395747265045 -0.9198999977152723 -2.407479171656341 Q -0.9232302606245909 -2.361198405144162 -0.9259122223319498 -2.3111653452597194 Q -0.9285941840393086 -2.261132285375276 -0.9297844397276503 -2.2198184463936905 Q -0.9309746954159921 -2.1785046074121053 -0.9296008692387129 -2.154356882847778 Q -0.927639031925609 -2.132975788526932 -0.9402189370980071 -2.124805966873219 Q -0.9486055405462724 -2.1193594191040774 -0.9591057285638287 -2.122675448596704 Q -0.9696059165813851 -2.1259914780893303 -0.9772310834581834 -2.1377327229169016 Q -0.9815883216734969 -2.144442005675514 -0.9839742336312448 -2.1536239131096955 Q -0.9873532534805385 -2.195547441406561 -0.9940435583502277 -2.2388976411840775 Q -1.000733863219917 -2.2822478409615945 -1.0082628284344328 -2.325053385962197 Q -1.014495191245029 -2.3603543442182713 -1.0194912417178408 -2.3946696393455627 Q -1.0244872921906525 -2.4289849344728545 -1.0279963811166777 -2.4600925910047957 Q -1.0297075692207798 -2.4792517098590747 -1.0188822085113944 -2.502975359778758 Q -1.008056847802009 -2.5266990096984414 -0.9929609615951314 -2.5365027956828965 Q -0.9761877546986005 -2.5473958912211803 -0.9680179330448879 -2.534815986048782 Q -0.9620267304988319 -2.52559072225569 -0.9616988575164706 -2.5067256089693237 Q -0.9614576972519303 -2.4806499145063414 -0.959652351667244 -2.4347234436282097 Q -0.9578470060825578 -2.3887969727500784 -0.9544679862332641 -2.346873444453213 Q -0.9534559004527954 -2.361839261583359 -0.952128130924959 -2.3799910391293997 Q -0.9508003613971225 -2.3981428166754406 -0.9486122533450043 -2.4186418942925494 L -0.9424720038332938 -2.4679399402572115 Q -0.9372137710253202 -2.5130880408566516 -0.922718085189261 -2.5421762702998865 Q -0.9082223993532017 -2.571264499743121 -0.8847399096980586 -2.586514833496718 Q -0.8436455528015582 -2.6132029175655127 -0.8191360878404204 -2.575463202048318 Q -0.8044304088637376 -2.5528193727380017 -0.7994946484570611 -2.525023001226456 Q -0.7945588880503844 -2.49722662971491 -0.7922596888104575 -2.4808341411041126 Q -0.777712545743891 -2.375813283039627 -0.7627704509748988 -2.3151668997681205 Q -0.7478283562059065 -2.254520516496614 -0.7394417527576411 -2.259967064265756 Q -0.7310551493093758 -2.2654136120348976 -0.7209214461608606 -2.289284264738537 Q -0.7107877430123456 -2.3131549174421764 -0.6989502965224914 -2.351844384492006 Q -0.6937015526589794 -2.373138766095031 -0.6895421183492957 -2.396110468387709 Q -0.6853826840396121 -2.4190821706803867 -0.6820185537158444 -2.445114508784459 Q -0.680505169517372 -2.45563637498147 -0.6754732074484128 -2.458904303642955 Q -0.669602585034627 -2.4627168870813545 -0.6636113824885711 -2.4534916232882624 Q -0.6576201799425152 -2.4442663594951703 -0.6574995998102451 -2.4312285122636794 Q -0.6570850141100625 -2.419573980153929 -0.6594201249461369 -2.3983832449759497 Q -0.6617552357822113 -2.3771925097979705 -0.6653266589560702 -2.356987437748774 Q -0.6775543126761194 -2.2858503554041727 -0.7081796486789804 -2.2301898775521827 Q -0.7130043178978485 -2.2210946828358225 -0.7170939731969355 -2.215457775923814 Q -0.7211836284960225 -2.2098208690118053 -0.724832275443241 -2.206258934782408 Q -0.7276422620456331 -2.2032416553299248 -0.7303052458640689 -2.200916033438312 Q -0.7329682296825046 -2.198590411546699 -0.7371615314066373 -2.195867137662128 M -0.583440694375071 -1.9493776711279764 Q -0.6033053156918966 -1.9425661500101117 -0.6201570463484309 -1.953173655554754 Q -0.6370087770049654 -1.9637811610993965 -0.6451177307167089 -1.9874295198099032 Q -0.6593894892493776 -2.0290506311403953 -0.64729655495503 -2.075483496011654 Q -0.6352036206606826 -2.121916360882913 -0.6066647341492373 -2.1681741381391415 Q -0.578125847637792 -2.21443191539537 -0.5421138151707471 -2.2558521220292405 Q -0.5061017827037021 -2.2972723286631105 -0.4712650523940859 -2.3282465473188743 Q -0.4677255758733053 -2.358003430656328 -0.4642946597404807 -2.400408958768704 Q -0.460863743607656 -2.4428144868810806 -0.4576357166945496 -2.4904362239582625 Q -0.45440768978144325 -2.538057961035445 -0.4532201405909178 -2.583922868393032 Q -0.45203259140039237 -2.6297877757506196 -0.45487171746105093 -2.6658147012815565 Q -0.4599515644332133 -2.6313010061050126 -0.4694231549505127 -2.592638505240834 Q -0.4788947454678122 -2.5539760043766555 -0.4915556372758312 -2.5184485246092185 Q -0.5042165290838501 -2.4829210448417816 -0.5199723933508261 -2.4579610219812027 Q -0.5357282576178022 -2.4330009991206234 -0.5555928789346278 -2.426189478002759 Q -0.6132948741882642 -2.4064036309461048 -0.6366486608780857 -2.474510904032364 Q -0.6483255542229963 -2.508564540575494 -0.6488541246065821 -2.5517266838650663 Q -0.6493826949901679 -2.594888827154639 -0.6431139758120824 -2.6382674297124247 Q -0.6368452566339969 -2.68164603227021 -0.6289276066165738 -2.717132801892163 Q -0.6342788545586256 -2.7142407186529245 -0.6397922815749124 -2.711821602587896 Q -0.6453057085911992 -2.7094024865228676 -0.6500353803333005 -2.7077806957805186 Q -0.676521542089068 -2.698698667623366 -0.7023189389101115 -2.70148152896695 Q -0.7281163357311551 -2.704264390310534 -0.7465762870815437 -2.7180204870004125 Q -0.7606037847413117 -2.7311821475873295 -0.7622255754836604 -2.7359118193294307 L -0.7625499336321302 -2.7368577536778513 Q -0.7644960825229485 -2.7425333597683728 -0.7597664107808473 -2.7441551505107213 Q -0.7540908046903256 -2.74610129940154 -0.7464690497089855 -2.7423718422018366 Q -0.7029276065692664 -2.717130155861368 -0.6480634143608908 -2.735942928472613 Q -0.6329284647861665 -2.741132658848129 -0.6187665896568514 -2.7491601922689055 L -0.611173297787898 -2.785592896239279 Q -0.6072551829246697 -2.8080795228408517 -0.5935533664287692 -2.8328637965787014 Q -0.5848241595324728 -2.847485730341431 -0.578202619093531 -2.8497562373807193 Q -0.5706351443061688 -2.8523511025684773 -0.5642565417247298 -2.8460810603749938 Q -0.5578779391432909 -2.8398110181815106 -0.553985641361654 -2.8284598060004678 Q -0.5478228365407288 -2.8104870533804824 -0.549808372561633 -2.7839059012852534 Q -0.5517939085825372 -2.757324749190025 -0.569009384517627 -2.736621430897337 Q -0.603734908408492 -2.618998567513958 -0.5863526228452753 -2.5097289187152234 Q -0.5843250536634901 -2.49456682904351 -0.5810814721787926 -2.4851074855593076 Q -0.5719994440216398 -2.45862132380354 -0.5559185600984953 -2.4641354123275256 Q -0.5360539387816695 -2.4709469334453904 -0.5187312254740216 -2.5160016069395024 Q -0.5125426035715053 -2.531866693102133 -0.5028952639314764 -2.5684751461952358 Q -0.4932479242914477 -2.605083599288339 -0.4838306139681261 -2.6500704225399785 Q -0.4744133036448045 -2.6950572457916184 -0.46909051881513936 -2.738111490200934 Q -0.4637677339854741 -2.7811657346102496 -0.4659038635552152 -2.808976469056885 Q -0.46855300893695107 -2.8228682662317084 -0.4607290262435916 -2.8324226000553723 Q -0.45290504355023203 -2.841976933879036 -0.44344570006602935 -2.8452205153637338 Q -0.4349322909302469 -2.8481397386999614 -0.42732410599740134 -2.8459913620971236 Q -0.4197159210645557 -2.8438429854942857 -0.41614798143138854 -2.8334377076616626 Q -0.41193132550128186 -2.821140561132199 -0.4086470338711011 -2.8069379758574007 Q -0.4053627422409202 -2.7927353905826022 -0.4039567492590854 -2.776303008413999 Q -0.39519775623500475 -2.7137627810303053 -0.39341047887992686 -2.6160601421731275 Q -0.3935448563494739 -2.5948709481654344 -0.39351705474478615 -2.5732087869835305 Q -0.3934892531400983 -2.5515466258016266 -0.39456956495806567 -2.5300330736454635 Q -0.39583853443955797 -2.4936546498690677 -0.39855354554066963 -2.459951850063698 Q -0.4012685566417813 -2.4262490502583276 -0.40294330456271016 -2.400303044411544 Q -0.3851062524276698 -2.422276655201122 -0.37059354056059485 -2.444696093067921 Q -0.3560808286935199 -2.46711553093472 -0.34616274959130044 -2.4906023720786905 Q -0.33932541139184463 -2.504575589544481 -0.3342177628149945 -2.5174271235391212 Q -0.3291101142381443 -2.5302786575337617 -0.3247862209354796 -2.5423328662057223 Q -0.32357020863256747 -2.548035612393233 -0.3188405368904661 -2.5496574031355816 Q -0.30748932470942286 -2.5535497009172183 -0.3029483106308465 -2.5403066200393347 Q -0.30067780359155827 -2.5336850796003927 -0.30378568459131094 -2.527333617115943 Q -0.30964994834535753 -2.5105225966048916 -0.3158385702478739 -2.494657510442261 Q -0.3220271921503902 -2.4787924242796304 -0.32916174840132684 -2.46260297996853 Q -0.33999862175497764 -2.4356296194823592 -0.36014622956709075 -2.4065207909341457 Q -0.38029383737920386 -2.377411962385932 -0.40850902724987825 -2.348708250769457 Q -0.4146963261369969 -2.29584316463048 -0.4247616912495591 -2.2342482100875074 Q -0.43482705636212127 -2.1726532555445353 -0.4536087198301842 -2.1133552866301413 Q -0.4723903832982471 -2.0540573177157473 -0.5033212457777321 -2.010150806282075 Q -0.5342521082572169 -1.966244294848403 -0.583440694375071 -1.9493776711279764 M -0.5903607758808913 -1.9818909372197242 Q -0.575225826306167 -1.9870806675952402 -0.5521732267140196 -2.0277571675927093 Q -0.5422008674178221 -2.044919686349219 -0.5318098211413925 -2.0685687065674245 Q -0.5214187748649628 -2.09221772678563 -0.5129060272368793 -2.113636950110031 Q -0.5043932796087958 -2.1350561734344318 -0.5022584730544523 -2.144245438964143 Q -0.49490811904300175 -2.1721375937017453 -0.48857154962244387 -2.207610793275204 Q -0.48223498020188604 -2.243083992848663 -0.4772094134237016 -2.2839220104126685 Q -0.5069921138427468 -2.253623648150833 -0.5357745997193938 -2.2173253216500064 Q -0.5645570855960408 -2.18102699514918 -0.5850962402913972 -2.14226950394554 Q -0.6056353949867536 -2.1035120127419003 -0.6137016540299172 -2.0669171296972917 Q -0.6217679130730807 -2.030322246652683 -0.611388452322049 -2.0000523475032344 Q -0.6036038567587751 -1.9773499231411478 -0.5903607758808913 -1.9818909372197242 M 0.04989398333675199 -2.248904850056093 Q 0.04589504042612724 -2.248996804379342 0.043418689687798995 -2.2500540115590284 Q 0.04094233894947069 -2.251111218738715 0.038965856074970495 -2.252156931627996 Q 0.009180681472594543 -2.2618442106012666 -0.0011037655264459767 -2.2930888925475426 Q -0.008503948246578907 -2.319265930113101 -0.007837279403025754 -2.34825826621513 Q -0.006802793266477758 -2.3932463739596583 0.00957255749709568 -2.452885688906847 Q 0.016122697802525066 -2.4767414148857223 0.024160947409032574 -2.5000627901295513 Q 0.03219919701554014 -2.5233841653733804 0.0407488087762819 -2.5471939141906312 Q 0.0588247794446094 -2.5937906875166648 0.07677431291846992 -2.6348889143405896 Q 0.09472384639233045 -2.6759871411645144 0.10836409111460177 -2.703680889988329 Q 0.13878171922698612 -2.7649978362594596 0.1705955023172 -2.821781488884919 Q 0.20240928540741387 -2.878565141510378 0.23048261335230324 -2.92493202902829 Q 0.25648750409944354 -2.9683456865248576 0.27826356612783754 -3.001853941068112 Q 0.3000396281562314 -3.0353621956113668 0.31549543568731775 -3.0550120814523076 Q 0.2796428809765682 -3.0618380847274835 0.2422447455127099 -3.0666990994185648 Q 0.20484661004885174 -3.071560114109646 0.16185797375963573 -3.0725486230845696 Q 0.07688043690885998 -3.0745026524536048 -0.000616457188940267 -3.053778719303878 Q -0.07811335128674049 -3.033054786154152 -0.13404134812112994 -2.993329993264918 Q -0.16556189303715177 -2.971048717534003 -0.18108666631067463 -2.9483996245100936 Q -0.19661143958419747 -2.925750531486184 -0.19702523403881667 -2.9077552883883726 Q -0.19748500565506022 -2.8877605738352488 -0.17926575766316694 -2.8753384563583495 Q -0.16104650967127362 -2.86291633888145 -0.12405628774799479 -2.862065761391399 Q -0.05207531535674942 -2.8604105835729223 0.014866882148630411 -2.8788765575020365 Q 0.08180907965401024 -2.8973425314311503 0.1517793538372107 -2.938744955644326 Q 0.15684699821792814 -2.9416292199232337 0.16084594112855288 -2.941537265599985 Q 0.16884382694980238 -2.9413533569534875 0.16868290688411713 -2.9343552068598946 Q 0.16854497539924407 -2.928356792493957 0.16245460671005824 -2.9244957810682055 Q 0.12279824448791382 -2.8963999996178513 0.06770344993912902 -2.871159880489226 Q 0.012608655390344281 -2.8459197613606007 -0.04825466771625586 -2.8308149309934105 Q -0.10911799082285598 -2.81571010062622 -0.1681023987545709 -2.8170664268941383 Q -0.1751005488481642 -2.817227346959824 -0.1815988310779294 -2.817376772735103 Q -0.18809711330769463 -2.817526198510382 -0.19507227482047573 -2.8186868543037233 Q -0.22901731239916168 -2.82146793750665 -0.25403930754774473 -2.8425487287343123 Q -0.27906130269632784 -2.8636295199619743 -0.2784865881760234 -2.888622913153379 Q -0.2774521020394754 -2.9336110208979074 -0.2506543727919884 -2.968004068264757 Q -0.20219552442016833 -3.0309066915365808 -0.09844113272396723 -3.0625298824532368 Q -0.07224110657759683 -3.070929800901026 -0.04659841974708495 -3.0768418743200807 Q -0.0209557329165731 -3.0827539477391355 0.004152603178892433 -3.0871779118571117 Q 0.05736848255279203 -3.095956874350628 0.10995805686839655 -3.099248784632442 Q 0.16254763118400106 -3.1025406949142553 0.2085354746561856 -3.101483220196895 Q 0.24652543230712065 -3.1006096541260324 0.28195857918688483 -3.0972942201880596 Q 0.3173917260666489 -3.0939787862500867 0.3512677979028983 -3.0881984958641917 Q 0.36851617966198735 -3.098804782994603 0.38513825636278143 -3.103924017913311 Q 0.4017603330635754 -3.109043252832019 0.41475689752310585 -3.1087444012814607 Q 0.43075266916560484 -3.108376583988466 0.44108897424030946 -3.1011370537963447 Q 0.4514252793150142 -3.0938975236042237 0.45117240492608024 -3.082900430600006 Q 0.4510344734412072 -3.0769020162340683 0.4478513576117412 -3.0689730961552555 Q 0.46875385356927235 -3.0644913930475752 0.4911099759566635 -3.057975735613364 Q 0.5134660983440545 -3.0514600781791525 0.5353453414484298 -3.045955650763004 Q 0.5691524475422427 -3.0371761531941406 0.6014714443349773 -3.0289310063603234 Q 0.633790441127712 -3.0206858595265063 0.6586688914150558 -3.015112466367921 Q 0.6924989860896809 -3.0073327045267133 0.7223991035961177 -3.0026441041917233 Q 0.7522992211025545 -2.9979555038567334 0.7712941999280221 -2.997518720821302 Q 0.8002865360300515 -2.996852051977749 0.8004474560957366 -3.0038502020713422 Q 0.8017230547931389 -3.015824042222404 0.7905594283468695 -3.030584578952759 Q 0.7793958019006 -3.0453451156831135 0.7631300482023946 -3.0557217845430764 Q 0.7468642945041895 -3.0660984534030393 0.7318682585893466 -3.066443282115222 Q 0.7238703727680971 -3.0666271907617193 0.7240083042529701 -3.0726256051276564 Q 0.7241692243186553 -3.0796237552212498 0.7341665815952172 -3.0793938694131278 Q 0.7471631460547477 -3.07909501786257 0.7869226893528731 -3.0681781173535208 Q 0.7928751265571861 -3.0660407144133353 0.7938748622848422 -3.066017725832523 Q 0.8117091853169685 -3.0586057812843106 0.8209193174695499 -3.0458906931708927 Q 0.8301294496221314 -3.0331756050574743 0.8298076094907609 -3.019179304870288 Q 0.8293938150361417 -3.0011840617724768 0.8160754104452408 -2.9874866131358484 Q 0.7995738900248739 -2.965860244420407 0.7854166697720022 -2.959183934458184 Q 0.7692829666446301 -2.953553337385242 0.7507303842309603 -2.951479286811127 Q 0.7321778018172902 -2.949405236237012 0.7111833515365105 -2.949887996434067 Q 0.6631960366090135 -2.9509914483130517 0.6084749402672635 -2.963752781125768 Q 0.5537538439255132 -2.9765141139384834 0.5021354033803864 -2.9937052917832156 Q 0.45051696283525966 -3.010896469627948 0.4108493738603828 -3.0258123130476218 Q 0.38205217315758333 -2.9914652428423962 0.35993716333104653 -2.964966632683141 Q 0.33782215350450984 -2.938468022523886 0.31086350419133757 -2.8970768250634427 Q 0.2663116444068936 -2.830083304557746 0.227792681859605 -2.76445145615866 Q 0.18927371931231624 -2.698819607759574 0.1577873897298392 -2.6345264428862873 Q 0.07810631291720854 -2.475316122875367 0.05414633571165772 -2.346832974204775 Q 0.047366309598106615 -2.3129798909493378 0.04683757223942653 -2.2899859692132454 Q 0.046377800623182974 -2.269991254660122 0.05316905348946671 -2.260832713045531 Q 0.05609929492999871 -2.257764540120126 0.05600734060675 -2.253765597209501 Q 0.05589239770268911 -2.2487669185712202 0.04989398333675199 -2.248904850056093 M 0.7195910402606424 -2.6990599171258296 Q 0.7072518371820418 -2.703151868663306 0.7013848187482832 -2.7140526986637203 Q 0.6955178003145247 -2.724953528664135 0.6996097518520007 -2.7372927317427354 Q 0.7049607654010077 -2.7534286126916747 0.7201279850466169 -2.7610414602680975 Q 0.7352952046922261 -2.7686543078445203 0.7504819161735807 -2.763618059798396 Q 0.7656686276549354 -2.758581811752272 0.7702741475976946 -2.7454654408343373 Q 0.7748796675404539 -2.732349069916402 0.7682598460620431 -2.718741058908398 Q 0.7597416856484629 -2.705762578906159 0.7463105492276453 -2.700207889495815 Q 0.7328794128068277 -2.694653200085471 0.7195910402606424 -2.6990599171258296 M 0.4282730617521576 -2.3352648712583384 Q 0.401696316659787 -2.344078305339056 0.3937565211831405 -2.3662020402811725 Q 0.385816725706494 -2.3883257752232887 0.39620398730162526 -2.4196483676535827 Q 0.40092546984486677 -2.433885909667353 0.40943875729951057 -2.450026663575229 Q 0.4198455107303873 -2.4687001603829755 0.4400465419426526 -2.4930808563935716 Q 0.4602475731549178 -2.5174615524041672 0.4839280802551708 -2.5412151538884657 Q 0.5076085873554238 -2.5649687553727643 0.5256086965269778 -2.581124128157449 Q 0.5420301052251817 -2.5956959275098472 0.5647687522962546 -2.6150208836385733 Q 0.5875073993673274 -2.6343458397672994 0.6026648730950639 -2.648283235154996 Q 0.6143501803732172 -2.6581043142105343 0.6181419852846195 -2.66000752610464 Q 0.6291928885980709 -2.6710925401306462 0.6499026152566831 -2.673179936050343 Q 0.6706123419152953 -2.67526733197004 0.6857990533966499 -2.670231083923916 Q 0.7057316122159278 -2.663621008363378 0.701639660678452 -2.6512818052847775 Q 0.6997510676611554 -2.645586788479269 0.6912231613297024 -2.638932856288304 Q 0.663431210856228 -2.615489147347952 0.626479386566067 -2.585074304234283 Q 0.589527562275906 -2.554659461120615 0.5532125784299151 -2.5213995460836607 Q 0.5168975945839241 -2.4881396310467063 0.49006699597537534 -2.4564754718393793 Q 0.46323639736682654 -2.4248113126320527 0.4547377287889918 -2.3991837370072666 Q 0.4459242947082744 -2.372606991914896 0.46585685352755235 -2.365996916354358 Q 0.4791452260737377 -2.361590199313999 0.5028500979686725 -2.369532431270114 Q 0.5265549698636074 -2.3774746632262285 0.5505697343024886 -2.389528338555565 Q 0.5745844987413697 -2.4015820138849007 0.5875386139489269 -2.4088752229995047 L 0.6131320788611583 -2.4225124717611273 Q 0.6194517537134955 -2.4256844915846365 0.6249796418496893 -2.429645861644821 Q 0.6305075299858832 -2.4336072317050057 0.6358780353706357 -2.437094017031398 Q 0.6402993712878036 -2.4408955678606734 0.645045218625727 -2.4393217403462595 Q 0.6564352522367429 -2.435544554311666 0.6520285351963842 -2.422256181765481 Q 0.6498251766762049 -2.4156119954923883 0.6435055018238676 -2.4124399756688786 Q 0.6286579206400775 -2.4026140236544036 0.6141251049591703 -2.3937372411075137 Q 0.599592289278263 -2.3848604585606235 0.584110304129771 -2.376298441516616 Q 0.5616791131231764 -2.3626660657139293 0.5352938614948017 -2.3498181671889817 Q 0.5089086098664269 -2.3369702686640346 0.48187920835547765 -2.331710852920828 Q 0.4548498068445283 -2.3264514371776213 0.4282730617521576 -2.3352648712583384 M 0.48089517584378416 -2.136967540817382 Q 0.45895979312822055 -2.148960829987653 0.45646945201462796 -2.172546804657739 Q 0.4539791109010354 -2.196132779327826 0.4702899841726046 -2.225964899820992 Q 0.4741278367070915 -2.2329842222899727 0.4798025676838227 -2.241278643809387 Q 0.48547729866055384 -2.2495730653288017 0.4920294449459075 -2.2573877552814055 Q 0.4938663233881518 -2.2586628543318397 0.49646382309311193 -2.2623713574372357 Q 0.4990613227980721 -2.2660798605426318 0.5018576643739381 -2.2691097902103112 Q 0.5116858838019687 -2.2808318251392166 0.5271067863817311 -2.298613719403481 Q 0.5425276889614936 -2.316395613667745 0.5583462752830679 -2.332820361056576 Q 0.5844728125994835 -2.361844558682935 0.6217374146152714 -2.395606214990127 Q 0.6590020166310593 -2.4293678712973183 0.7037309264617309 -2.4653167881844746 Q 0.7378362493807487 -2.4922579638935916 0.7697827802491174 -2.5152507707139073 Q 0.8017293111174862 -2.538243577534223 0.8324765130688279 -2.5590428460829826 L 0.718412522947897 -2.621407949768394 Q 0.7043738780099362 -2.629083654837368 0.708691462111234 -2.636980392614971 Q 0.7168468987470187 -2.6518964528615543 0.7405371120798274 -2.638943700557661 L 0.8572333481266259 -2.575139402171817 Q 0.9002769197818674 -2.601752386580937 0.9431563957871106 -2.6238962466219458 Q 0.9860358717923537 -2.646040106662954 1.0304240349398444 -2.660520817018173 Q 1.0562918733980784 -2.670311370296651 1.07396952899962 -2.6703335611343744 Q 1.091647184601162 -2.6703557519720977 1.1069261823686494 -2.6659908662667084 Q 1.1222051801361368 -2.6616259805613187 1.1407949972672087 -2.656020742026403 L 1.1413442212758345 -2.646602761723368 Q 1.0781895899640894 -2.62072820773924 1.0253303542640015 -2.594923146196927 Q 0.9724711185639137 -2.5691180846546144 0.9230394962733168 -2.539159534661002 L 1.0450002241718508 -2.4724768468742924 Q 1.059916284418434 -2.4643214102385076 1.0551189687503253 -2.4555472571522823 Q 1.052720310916271 -2.4511601806091696 1.043501172484142 -2.449932383162827 Q 1.0342820340520134 -2.4487045857164844 1.0237530503485428 -2.454461364518215 L 0.8974052459068963 -2.5235427101389787 Q 0.8575556995693324 -2.4986025085221044 0.8161849107063368 -2.468795498795306 Q 0.7748141218433413 -2.4389884890685076 0.7278506498286137 -2.403121620006351 Q 0.6873572762742406 -2.3728348787127422 0.6472553087700872 -2.3349260116458432 Q 0.6071533412659337 -2.2970171445789442 0.5781894384611526 -2.2638457361928777 Q 0.5492255356563713 -2.2306743278068115 0.540110635886965 -2.214003436942983 Q 0.5204416416477197 -2.1780294092894588 0.5379899478201706 -2.1684347779532414 Q 0.546764100906396 -2.163637462285133 0.5669572083878988 -2.1651335940441965 Q 0.6126899630276388 -2.167482030345514 0.6516842848943033 -2.1752243079276576 Q 0.6906786067609679 -2.182966585509801 0.7281989877062924 -2.1932243149719057 Q 0.7548621936481497 -2.2003005744995168 0.7927044882018788 -2.213231573799989 Q 0.8305467827556079 -2.2261625731004604 0.862720624024198 -2.2370641297793745 Q 0.869506358401365 -2.239052548488433 0.8754146774699095 -2.2415206987643024 Q 0.8813229965384539 -2.2439888490401714 0.8867515840401876 -2.245579584007418 L 0.9107825440561772 -2.254095038235462 Q 0.9162111315579109 -2.2556857732027087 0.9205982081010236 -2.2532871153686544 Q 0.9311271918044941 -2.247530336566924 0.9253704130027638 -2.2370013528634534 Q 0.9229717551687096 -2.2326142763203407 0.9138694107824874 -2.2284733432522255 Q 0.9042873348294543 -2.223454994875488 0.8961444535768539 -2.2210688924246176 L 0.8784194963712204 -2.2136644415970097 Q 0.8147851334926646 -2.1869124723042592 0.7432540328365056 -2.1644780871128066 Q 0.6717229321803468 -2.142043701921354 0.6009997543909955 -2.129424980774748 Q 0.5721840340900815 -2.1246653312561916 0.5418943728678274 -2.1224211336175967 Q 0.5116047116455733 -2.1201769359790017 0.48089517584378416 -2.136967540817382 M 1.0132848221097295 -1.9758883394639852 Q 0.9986063560071206 -1.9894729864183436 0.9996207999087589 -2.0089722403417745 Q 1.0006352438103971 -2.0284714942652053 1.0189745171987812 -2.0482874235037274 Q 1.0318799318054217 -2.0622319663012054 1.0512265832859988 -2.074302884927768 Q 1.058128288678003 -2.0788158066733757 1.0776116675521115 -2.087353836167817 Q 1.0970950464262197 -2.0958918656622583 1.1172850031267523 -2.104457240635406 Q 1.1228829347807332 -2.106089160117904 1.1277469431295837 -2.1084003119481207 Q 1.0806523380675197 -2.1002089644369835 1.0349276681302753 -2.102331359105763 Q 0.9892029981930309 -2.1044537537745422 0.9605799892929436 -2.130943815335541 Q 0.9363058292662264 -2.154771638463081 0.9379174690794638 -2.1771245491709146 Q 0.9395291088927014 -2.1994774598787483 0.9565099175856495 -2.2178255425070095 Q 0.9755284233217514 -2.238375395050662 1.0071171321105734 -2.2541044597734925 Q 1.0387058408993957 -2.2698335244963235 1.0666954991693003 -2.2779931219088154 Q 1.1136260313591269 -2.2904239363784975 1.1679778330363766 -2.293942693891728 Q 1.2223296347136263 -2.2974614514049585 1.2715483778749015 -2.287336466386479 Q 1.3207671210361767 -2.277211481368 1.349390129936264 -2.2507214198070007 Q 1.3816827553620037 -2.2208351965074122 1.3884062562628796 -2.175099056140784 Q 1.3902569395750284 -2.1638485018754094 1.3873918123612414 -2.1555998022173535 Q 1.3845266851474545 -2.147351102559297 1.380451291061147 -2.1429475627285144 Q 1.3743381999316857 -2.1363422529823404 1.3665931893197258 -2.1353348748901473 Q 1.358848178707766 -2.134327496797954 1.3537107155718529 -2.1390821232319794 Q 1.345637559215418 -2.146553679056877 1.3521017369481223 -2.1623718460252714 Q 1.3592451470285445 -2.1789239362987964 1.3566605404112653 -2.190853722911889 Q 1.3540759337939865 -2.2027835095249815 1.3452688541324211 -2.2109342976975963 Q 1.3276546948092904 -2.227235874042827 1.2899599607004522 -2.2321457641092124 Q 1.252265226591614 -2.2370556541755984 1.208512092310727 -2.233947078842962 Q 1.1590516444610341 -2.232032895333524 1.1114145344447834 -2.219574735385135 Q 1.0637774244285327 -2.2071165754367468 1.0304085983342972 -2.1916724359303625 Q 1.0011698572837815 -2.1792186806019127 0.9909813720680127 -2.1682098310249565 Q 0.9814721191999617 -2.15793490475313 0.9895452755563966 -2.1504633489282328 Q 1.0005541251333532 -2.140274863712464 1.0402865562853452 -2.1375667435614694 Q 1.0679798189094196 -2.1351003280988925 1.10503413657863 -2.1375958324706077 Q 1.1420884542478404 -2.1400913368423224 1.1773079636542245 -2.144284922083332 Q 1.2125274730606088 -2.148478507324342 1.2322569612430734 -2.1506573363809656 Q 1.241360436550469 -2.1531325610834195 1.2494177178575816 -2.155213478654602 Q 1.2574749991646939 -2.1572943962257844 1.2638068541238054 -2.158247083360565 Q 1.2820684956960091 -2.161784377112624 1.2989487317140094 -2.146162033115112 Q 1.309957581290966 -2.135973547899343 1.3129091495608103 -2.123704145112392 Q 1.3158607178306545 -2.1114347423254407 1.3040403131323872 -2.106023824402465 Q 1.2984423814784063 -2.104391904919966 1.2883200576494336 -2.100815795259817 Q 1.278197733820461 -2.0972396855996673 1.263551017816497 -2.0917193857618663 Q 1.2377084385045711 -2.0829352469590687 1.2042302304955104 -2.0703174187583815 Q 1.1707520224864496 -2.057699590557694 1.1414585904785215 -2.0466589908820927 Q 1.1121651584705934 -2.035618391206491 1.0961599777711935 -2.0286302447584292 Q 1.064774157762699 -2.016801030820285 1.0559441372423661 -2.0072600278535893 Q 1.0498310461129048 -2.0006547181074152 1.054968509248818 -1.9959000916733896 Q 1.0571702791642092 -1.9938623946302358 1.061831398732732 -1.992273695675766 Q 1.0664925183012548 -1.9906849967212963 1.0729337551751912 -1.98881137255038 Q 1.0929366981447186 -1.9839244233427618 1.1205752698113804 -1.9828711635330334 Q 1.1482138414780425 -1.981817903723305 1.184846506537275 -1.9860661799217272 Q 1.2003912187186072 -1.9866677804532649 1.2141284681158195 -1.9882608840276732 Q 1.2278657175130316 -1.9898539876020815 1.2405294274312544 -1.9917593618716427 Q 1.2461273590852353 -1.9933912813541412 1.2497969756108875 -1.9899951196155514 Q 1.258604055272453 -1.9818443314429364 1.249094802404402 -1.9715694051711101 Q 1.2443401759703765 -1.966431942035197 1.2372743977061347 -1.9661584872481344 Q 1.2196919884816488 -1.9633551168012056 1.2027888116048808 -1.9612856696594068 Q 1.185885634728113 -1.9592162225176082 1.1682485345462146 -1.9578260077235274 Q 1.1513453576694466 -1.9557565605817289 1.1340752191401136 -1.9540267296137892 Q 1.1168050806107805 -1.9522968986458498 1.0997925218191873 -1.9530537628097477 Q 1.0687030974565233 -1.9518505617466724 1.04686534622417 -1.9584355918235854 Q 1.0250275949918166 -1.9650206219004984 1.0132848221097295 -1.9758883394639852 M 1.2306796705039653 -1.6985515593919425 Q 1.2113040952800844 -1.7288927374301093 1.2526018098320337 -1.7552650481515024 Q 1.2812573668680802 -1.773564202529612 1.3295266426229704 -1.7806583563268166 Q 1.3777959183778603 -1.7877525101240208 1.427258420150877 -1.792049127206602 Q 1.4725778591520562 -1.7972595445237067 1.5117995091678351 -1.8027287464800943 Q 1.5510211591836138 -1.808197948436482 1.5712486112090585 -1.8211149985857358 Q 1.591476063234503 -1.8340320487349897 1.5844793277369904 -1.8449885852487722 Q 1.5790972235081346 -1.853416690259374 1.5598339203063576 -1.8612859437027705 Q 1.5391895961806348 -1.8694597972243412 1.502369251923521 -1.873236336485044 L 1.4727586123643106 -1.8768708962788192 Q 1.4655489076664072 -1.8770128757457465 1.458070097757061 -1.877576260463204 Q 1.4505912878477147 -1.8781396451806613 1.443686183227986 -1.8796626455715344 Q 1.3974323028479627 -1.8833475539544533 1.3474212700799006 -1.886412941608863 Q 1.2974102373118384 -1.8894783292632729 1.256106735337981 -1.8909852216600778 Q 1.2148032333641234 -1.8924921140568827 1.1906456877672325 -1.8913034211890078 Q 1.169250184018233 -1.8895055281647837 1.1611770276749493 -1.9021476856806865 Q 1.1557949234460936 -1.9105757906912884 1.1591913397449063 -1.9210502527932372 Q 1.1625877560437188 -1.931524714895186 1.1743871030585615 -1.939059660815584 Q 1.1811295870670429 -1.9433653441986687 1.1903295128452414 -1.9456808065014581 Q 1.23227770984218 -1.9487383821270208 1.275677917496528 -1.9550962100233604 Q 1.3190781251508759 -1.9614540379197 1.3619401223823384 -1.9686546763171 Q 1.3972878148377226 -1.9746162732574812 1.4316403967529596 -1.9793491493130042 Q 1.4659929786681964 -1.9840820253685272 1.49712661861828 -1.9873525701944805 Q 1.5162982909422733 -1.9889168528739938 1.5399382672605986 -1.9779099677710676 Q 1.5635782435789238 -1.9669030826681415 1.5732660311908644 -1.951732493649058 Q 1.584030239648576 -1.9348762836278544 1.571388082132673 -1.9268031272845707 Q 1.562117166621011 -1.9208828126328292 1.5432500943751921 -1.920699550877262 Q 1.5171733174314699 -1.920658268588622 1.4712343577017812 -1.919205003659556 Q 1.4252953979720928 -1.9177517387304903 1.3833472009751542 -1.9146941631049277 Q 1.3983048207938467 -1.913567393670013 1.4164458877109607 -1.9121005292901918 Q 1.4345869546280747 -1.9106336649103706 1.4550686581425503 -1.9082884951627572 L 1.5043181907151761 -1.9017705551984831 Q 1.5494246605159643 -1.8961664154687328 1.5784009256242537 -1.8814481934166594 Q 1.607377190732543 -1.8667299713645862 1.622447082573339 -1.843131277334901 Q 1.6488193932947324 -1.8018335627829516 1.6108929207470237 -1.7776140937531006 Q 1.5881370372183987 -1.76308241233519 1.5603036495390925 -1.758359856851827 Q 1.532470261859786 -1.7536373013684643 1.5160606313836842 -1.751463818532602 Q 1.410931354252055 -1.737722090483295 1.3501722210203495 -1.72324529080478 Q 1.289413087788644 -1.7087684911262648 1.2947951920174998 -1.700340386115663 Q 1.3001772962463556 -1.6919122811050609 1.3239695726037681 -1.6815959064641077 Q 1.347761848961181 -1.6712795318231546 1.3863594450981986 -1.6591458772853136 Q 1.4076129693802708 -1.6537340656116344 1.4305521146644633 -1.649398674783726 Q 1.4534912599486556 -1.6450632839558177 1.4794970471589144 -1.641499713895506 Q 1.4900070041275948 -1.6399057237711694 1.4932362666649084 -1.6348488607648082 Q 1.4970037396251072 -1.628949187257387 1.4877328241134453 -1.6230288726056457 Q 1.4784619086017832 -1.6171085579539042 1.465423520129922 -1.6170879168095842 Q 1.4537661525820067 -1.6167626755870896 1.4325939386055582 -1.61926014537379 Q 1.4114217246291099 -1.6217576151604907 1.391244621192809 -1.6254838058320495 Q 1.3202033539152256 -1.6382563679710633 1.2647792552018275 -1.6693074433438668 Q 1.2557213088905563 -1.6742016857389805 1.2501159148891496 -1.6783344279386578 Q 1.244510520887743 -1.6824671701383351 1.2409766582722548 -1.6861430122207506 Q 1.2379810060796523 -1.6889760438021058 1.2356758643490227 -1.6916567753443736 Q 1.2333707226183932 -1.6943375068866415 1.2306796705039653 -1.6985515593919425 M 1.1280385305183978 -1.5873945617088139 Q 1.1115356963567884 -1.623954874407619 1.1202826746317225 -1.6510840168757812 Q 1.1290296529066568 -1.678213159343943 1.151581613286078 -1.6864234628124521 Q 1.1666162535390256 -1.691896998458125 1.1857127340673503 -1.687675099426728 Q 1.2048092145956752 -1.683453200395331 1.2248930672918497 -1.666288152743828 Q 1.2507881559183882 -1.6448534989088879 1.2716450213346076 -1.6167956806578245 Q 1.292501886750827 -1.588737862406761 1.3119925661022096 -1.5585863546762746 Q 1.3215668577889739 -1.543980433318936 1.331953077961497 -1.5286058949347154 Q 1.3423392981340203 -1.513231356550495 1.3528532548365937 -1.498967531171011 L 1.3947182530387259 -1.4950532080449175 Q 1.421033269174547 -1.492927196339525 1.460033763023793 -1.495419480335169 Q 1.4990342568730388 -1.4979117643308129 1.540169553814003 -1.503309666291639 Q 1.5813048507549674 -1.5087075682524649 1.6118028501564714 -1.515553883502719 Q 1.5608745063877754 -1.5385169800050968 1.50875102454317 -1.558916554520147 Q 1.4566275426985646 -1.5793161290351976 1.3821165549237207 -1.6085926162018138 Q 1.3703252329206466 -1.6117493115339327 1.3682726570535193 -1.617387301628788 Q 1.365535889230683 -1.6249046217552618 1.3768118694203937 -1.6290097734895164 Q 1.3890275146259135 -1.6334570212016255 1.4085094025909701 -1.6267149116417783 L 1.5139515043560903 -1.588479284599005 Q 1.539500101311611 -1.5796889948651938 1.5659039382117683 -1.5685495425918594 Q 1.5923077751119257 -1.5574100903185248 1.6205065169725283 -1.544263571483522 L 1.6512687808204587 -1.5299219145726097 Q 1.7353320818162514 -1.544563001475253 1.7514105927754149 -1.5003987457322197 Q 1.7572262243989423 -1.4844244404634628 1.7526600315431091 -1.4721199744936069 Q 1.7480938386872764 -1.4598155085237512 1.7358781934817564 -1.455368260811642 Q 1.730240203386901 -1.4533156849445148 1.727079112361619 -1.4532290620267605 L 1.7222941643648184 -1.45467967316277 Q 1.718020162488218 -1.4605731363177255 1.6960158661481297 -1.4727821879835006 Q 1.6740115698080411 -1.484991239649276 1.651537440960048 -1.4970292433261239 Q 1.6434225517956196 -1.4930107145096239 1.6341969496264548 -1.4891199222231737 Q 1.6249713474572898 -1.4852291299367237 1.6136953672675791 -1.4811239782024692 Q 1.5695311115245456 -1.4650454672433058 1.4987963665855908 -1.4488715419800615 Q 1.47675535232637 -1.4451040905304984 1.4545432900782216 -1.4418064715888401 Q 1.4323312278300733 -1.4385088526471816 1.4105456866309523 -1.4369628272070916 Q 1.4306295393271267 -1.4197977795555885 1.4520362666292606 -1.4063069668961494 Q 1.4734429939313942 -1.3928161542367103 1.4977964528110057 -1.3814623425155717 L 1.5054870187729883 -1.3778769282878436 Q 1.5144593457286346 -1.3736939450221608 1.5240292417222356 -1.3707927227501417 Q 1.5335991377158367 -1.3678915004781227 1.5435111296872923 -1.3640506131902945 Q 1.5482960776840928 -1.362600002054285 1.5500065575733655 -1.357901676975239 Q 1.5517170374626383 -1.3532033518961928 1.5486858808139878 -1.3483750924405151 Q 1.5456547241653371 -1.3435468329848375 1.5409563990862911 -1.3418363530955648 Q 1.536258074007245 -1.340125873206292 1.5324127910262537 -1.341918580320156 Q 1.5005420120201682 -1.3505356242184585 1.4723432701595656 -1.3636821430534616 Q 1.424233921438297 -1.3876715274894031 1.3707332642959473 -1.4352391602383294 Q 1.1934522981268807 -1.4398715499199293 1.1280385305183978 -1.5873945617088139 M 1.1515213645273021 -1.6193563593258167 Q 1.1549423243058476 -1.6099597091677245 1.1622085670653843 -1.5987703518957683 Q 1.1806729584832034 -1.5714378392127095 1.215369326076461 -1.5462900346199913 Q 1.2500656936697185 -1.521142230027273 1.3096198727230433 -1.5066405143603412 Q 1.2984217240647609 -1.5227836697714436 1.2878644559033103 -1.5386280406635686 Q 1.2773071877418598 -1.5544724115556938 1.2661090390835774 -1.5706155669667963 Q 1.243626118849258 -1.6060629688142836 1.206021935444237 -1.6391979260413803 Q 1.1920914146562813 -1.651153702493637 1.1798302601453026 -1.6541393498368286 Q 1.167569105634324 -1.6571249971800206 1.1600517855078503 -1.6543882293571843 Q 1.1412584851916658 -1.6475463098000933 1.1515213645273021 -1.6193563593258167" fill="#102036" fill-rule="nonzero"></path></g><g transform="matrix(1,0,0,1,0,0)"><g transform="matrix(1,0,0,1,0,0)" clip-path="url(#SvgjsClipPath76140)"><g clip-path="url(#SvgjsClipPath76135c426737c-d072-455a-aac6-01db03585a01)"><path d=" M 0.5480175508334331 -0.1875 L 0.34856041829367057 -0.1875 C 0.28974157092564345 -0.1875 0.23227569946559745 -0.2118713686582414 0.19090312038469714 -0.25436549355759985 C 0.14385160295319133 -0.3026987776387722 0.08122306026532211 -0.32933104024850834 0.014535589853509334 -0.32933104024850834 L -0.01453558985350889 -0.32933104024850834 C -0.08120525795074318 -0.32933104024850834 -0.14385160295319066 -0.3027165799533509 -0.19090312038469692 -0.25438329587217834 C -0.23227569946559734 -0.21188917097281967 -0.2897415709256431 -0.1875178023145787 -0.34856041829367024 -0.1875178023145787 L -0.5479997485188542 -0.1875178023145787 C -0.6360321941105291 -0.1875178023145787 -0.7216079202903434 -0.20491066365796917 -0.8023948238484873 -0.23923352616570415 C -0.8801909385574093 -0.2722746220237726 -0.9500828255933882 -0.3195041626010655 -1.010165637296503 -0.3795869743041804 C -1.0702484489996178 -0.43966978600729534 -1.1174601872623322 -0.5095794753578529 -1.1505190854349794 -0.5873577877521963 C -1.1848597502572926 -0.6681090866811825 -1.2022526116006833 -0.7537026151755755 -1.2022526116006833 -0.8417350607672505 L -1.2022526116006833 -1.0998686221584104 C -1.2022526116006833 -1.1879010677500854 -1.1848597502572926 -1.2734945962444784 -1.1505368877495579 -1.3542636974880435 C -1.1174957918914892 -1.4320598121969657 -1.0702662513141963 -1.5019516992329445 -1.0101834396110814 -1.5620345109360594 C -0.9501006279079667 -1.622117322639174 -0.8801909385574089 -1.6693290609018885 -0.8024126261630657 -1.7023879590745357 C -0.7216257226049219 -1.7367108215822706 -0.6360499964251076 -1.754103682925661 -0.5480175508334326 -1.754103682925661 L 0.5480175508334331 -1.754103682925661 C 0.6360499964251078 -1.754103682925661 0.7216257226049223 -1.7367108215822706 0.802412626163066 -1.7023879590745357 C 0.8802087408719881 -1.6693468632164672 0.9501006279079671 -1.622117322639174 1.010183439611082 -1.5620345109360594 C 1.0702662513141965 -1.5019516992329445 1.117477989576911 -1.432042009882387 1.1505368877495579 -1.3542636974880435 C 1.1848597502572928 -1.2734767939298997 1.2022526116006833 -1.1878832654355067 1.2022526116006833 -1.0998686221584104 L 1.2022526116006833 -0.8417350607672505 C 1.2022526116006833 -0.7537026151755755 1.1848597502572928 -0.6681090866811825 1.1505368877495579 -0.5873399854376178 C 1.1174957918914898 -0.5095438707286954 1.0702662513141965 -0.43965198369271663 1.010183439611082 -0.3795691719896017 C 0.9501006279079671 -0.319486360286487 0.8801909385574092 -0.27227462202377284 0.802412626163066 -0.23921572385112544 C 0.7216257226049219 -0.20489286134339046 0.6360499964251078 -0.1875 0.5480175508334331 -0.1875 Z M 0.3696205564402735 -0.4580951815962506 L 0.5480175508334333 -0.4580951815962506 C 0.7595624549721336 -0.4580951815962506 0.9316574300044331 -0.6301901566285499 0.9316574300044331 -0.8417350607672505 L 0.9316574300044331 -1.0998686221584104 C 0.9316574300044331 -1.311413526297111 0.7595624549721336 -1.4835085013294105 0.5480175508334333 -1.4835085013294105 L -0.5480175508334326 -1.4835085013294105 C -0.759562454972133 -1.4835085013294105 -0.9316574300044327 -1.311413526297111 -0.9316574300044327 -1.0998686221584104 L -0.9316574300044327 -0.8417350607672505 C -0.9316574300044327 -0.6301901566285499 -0.759562454972133 -0.4580951815962506 -0.5480175508334326 -0.4580951815962506 L -0.36962055644027314 -0.4580951815962506 C -0.3254352116559379 -0.49998402779993323 -0.2748588359378493 -0.5333989722641543 -0.21897737047530774 -0.5576101200911874 C -0.1541413407796799 -0.5856843701817984 -0.0853531972475805 -0.5999262218447587 -0.01453558985350889 -0.5999262218447587 L 0.014535589853509334 -0.5999262218447587 C 0.08537099956215943 -0.5999262218447587 0.15415914309425882 -0.5856843701817984 0.2189773704753082 -0.5576101200911874 C 0.27484103362327095 -0.533416774578733 0.32543521165593825 -0.49998402779993323 0.3696205564402735 -0.4580951815962506 Z" fill="#102036" transform="matrix(1,0,0,1,0,0)" fill-rule="nonzero"></path></g><g clip-path="url(#SvgjsClipPath76135c426737c-d072-455a-aac6-01db03585a01)"><path d=" M -0.8470964357556043 -0.5031884444240995 L 0.09158400735012595 -0.5197980039260273 L 0.9316574300044331 -0.6384860352222246 L 1.0669372184879802 -0.8408449450383155 C 1.0669372184879802 -0.8411475843861532 1.0669372184879802 -0.8414324214194127 1.0669372184879802 -0.8417350607672505 L 1.0669372184879802 -1.0998686221584104 C 1.0669372184879802 -1.38527532948414 0.8334064558445842 -1.6188060921275358 0.5479997485188546 -1.6188060921275358 L -0.5480175508334326 -1.6188060921275358 C -0.8334242581591622 -1.6188060921275358 -1.066955020802558 -1.38527532948414 -1.066955020802558 -1.0998686221584104 L -1.066955020802558 -0.8417350607672505 C -1.066955020802558 -0.8414324214194127 -1.066955020802558 -0.8411475843861532 -1.066955020802558 -0.8408449450383155 L -0.847114238070183 -0.5031884444240995 Z" fill="#a5b2ba" transform="matrix(1,0,0,1,0,0)" fill-rule="nonzero"></path></g><g clip-path="url(#SvgjsClipPath76135c426737c-d072-455a-aac6-01db03585a01)"><path d=" M -1.0669372184879793 -0.8408449450383155 C -1.0664565559943544 -0.5558298886333173 -0.8331216188113244 -0.3227975907981251 -0.5480175508334326 -0.3227975907981251 L -0.34857822060824883 -0.3227975907981251 C -0.3256488394308823 -0.3227975907981251 -0.3038588063865527 -0.3323218290977301 -0.2878545255803008 -0.34875336545387103 C -0.21837209177963202 -0.4201228445998819 -0.12140288426944923 -0.4646286310466339 -0.014553392168087598 -0.4646286310466339 L 0.014517787538930627 -0.4646286310466339 C 0.12138508195487074 -0.4646286310466339 0.21833648715047493 -0.4201228445998819 0.2878189209511437 -0.34875336545387103 C 0.30382320175739563 -0.3323218290977301 0.3256132348017253 -0.3227975907981251 0.34854261597909164 -0.3227975907981251 L 0.5479819462042756 -0.3227975907981251 C 0.8331038164967459 -0.3227975907981251 1.066420951365197 -0.5558298886333173 1.0669016138588223 -0.8408449450383155 L -1.0669372184879793 -0.8408449450383155 Z" fill="#3682ae" transform="matrix(1,0,0,1,0,0)" fill-rule="nonzero"></path></g><g clip-path="url(#SvgjsClipPath76135c426737c-d072-455a-aac6-01db03585a01)"><path d=" M -0.5552274882378064 -1.5612334067800178 L 0.555227488237807 -1.5612334067800178 C 0.7808006162645236 -1.5612334067800178 0.9743651826787365 -1.4254373511736889 1.0486186367864965 -1.2362521541458364 C 0.988339999623016 -1.456057332249054 0.7862837291547629 -1.6188060921275358 0.5480175508334328 -1.6188060921275358 L -0.5480175508334326 -1.6188060921275358 C -0.7862837291547629 -1.6188060921275358 -0.9883399996230158 -1.456057332249054 -1.0486186367864962 -1.2362521541458364 C -0.9743829849933143 -1.4254373511736889 -0.7808006162645229 -1.5612334067800178 -0.5552274882378064 -1.5612334067800178 Z" fill="#eda0a0" transform="matrix(1,0,0,1,0,0)" fill-rule="nonzero"></path></g><g clip-path="url(#SvgjsClipPath76135c426737c-d072-455a-aac6-01db03585a01)"><path d=" M 0.669963405697533 -1.5030910473659813 L -0.6699634056975324 -1.5030910473659813 C -0.7933334457279283 -1.5030910473659813 -0.8942725693891612 -1.4021519237047484 -0.8942725693891612 -1.2787818836743525 L -0.8942725693891612 -0.7091078171559302 C -0.8942725693891612 -0.5857377771255345 -0.7933334457279283 -0.4847986534643016 -0.6699634056975324 -0.4847986534643016 L -0.401148455559152 -0.4847986534643016 C -0.36962055644027314 -0.4847986534643016 -0.33884035453369954 -0.49428728713474923 -0.3127955683050604 -0.5120361947697136 C -0.23257833881343493 -0.5666893005263247 -0.13587616602193275 -0.598733466767986 -0.0320352650843716 -0.598733466767986 L 0.03205306739895075 -0.598733466767986 C 0.13589396833651213 -0.598733466767986 0.2325961411280142 -0.5667071028409036 0.31281337061963965 -0.5120361947697136 C 0.3388581568482787 -0.494287287134749 0.3696383587548522 -0.4847986534643016 0.40116625787373117 -0.4847986534643016 L 0.6699812080121117 -0.4847986534643016 C 0.7933512480425073 -0.4847986534643016 0.8942903717037403 -0.5857377771255345 0.8942903717037403 -0.7091078171559302 L 0.8942903717037403 -1.2787818836743525 C 0.8942903717037403 -1.4021519237047484 0.7933512480425073 -1.5030910473659813 0.6699812080121117 -1.5030910473659813 Z" fill="#102036" transform="matrix(1,0,0,1,0,0)" fill-rule="nonzero"></path></g><g clip-path="url(#SvgjsClipPath76135c426737c-d072-455a-aac6-01db03585a01)"><path d=" M 0.669963405697533 -1.5030910473659813 L -0.6699634056975324 -1.5030910473659813 C -0.7933334457279283 -1.5030910473659813 -0.8942725693891612 -1.4021519237047484 -0.8942725693891612 -1.2787818836743525 L -0.8942725693891612 -0.7091078171559302 C -0.8942725693891612 -0.5857377771255345 -0.7933334457279283 -0.4847986534643016 -0.6699634056975324 -0.4847986534643016 L -0.401148455559152 -0.4847986534643016 C -0.36962055644027314 -0.4847986534643016 -0.33884035453369954 -0.49428728713474923 -0.3127955683050604 -0.5120361947697136 C -0.23257833881343493 -0.5666893005263247 -0.13587616602193275 -0.598733466767986 -0.0320352650843716 -0.598733466767986 L 0.03205306739895075 -0.598733466767986 C 0.13589396833651213 -0.598733466767986 0.2325961411280142 -0.5667071028409036 0.31281337061963965 -0.5120361947697136 C 0.3388581568482787 -0.494287287134749 0.3696383587548522 -0.4847986534643016 0.40116625787373117 -0.4847986534643016 L 0.6699812080121117 -0.4847986534643016 C 0.7933512480425073 -0.4847986534643016 0.8942903717037403 -0.5857377771255345 0.8942903717037403 -0.7091078171559302 L 0.8942903717037403 -1.2787818836743525 C 0.8942903717037403 -1.4021519237047484 0.7933512480425073 -1.5030910473659813 0.6699812080121117 -1.5030910473659813 Z M 0.8470964357556048 -0.7091078171559302 C 0.8470964357556048 -0.6114443193771784 0.7676269034762848 -0.5319747870978584 0.669963405697533 -0.5319747870978584 L 0.4011484555591527 -0.5319747870978584 C 0.37902017853782755 -0.5319747870978584 0.35765740104338684 -0.5385616434919778 0.3393566216564823 -0.5510232636970682 C 0.2482621779572709 -0.6130999346329977 0.1420001622370064 -0.6459096004015428 0.032035265084372044 -0.6459096004015428 L -0.03205306739895031 -0.6459096004015428 C -0.14201796455158444 -0.6459096004015428 -0.24827998027184905 -0.6130999346329977 -0.33937442397106043 -0.5510232636970682 C -0.35767520335796466 -0.5385616434919778 -0.3790379808524056 -0.5319747870978584 -0.4011662578737305 -0.5319747870978584 L -0.6699812080121111 -0.5319747870978584 C -0.7676447057908631 -0.5319747870978584 -0.847114238070183 -0.6114443193771784 -0.847114238070183 -0.7091078171559302 L -0.847114238070183 -1.2787818836743525 C -0.847114238070183 -1.3764453814531046 -0.7676447057908631 -1.4559149137324245 -0.6699812080121111 -1.4559149137324245 L 0.6699456033829543 -1.4559149137324245 C 0.7676091011617059 -1.4559149137324245 0.8470786334410263 -1.3764453814531046 0.8470786334410263 -1.2787818836743525 L 0.8470786334410263 -0.7091078171559302 Z" fill="#eda0a0" transform="matrix(1,0,0,1,0,0)" fill-rule="nonzero"></path></g><g clip-path="url(#SvgjsClipPath76135c426737c-d072-455a-aac6-01db03585a01)"><path d=" M 0.7400511181938774 -1.3186234637014846 L 0.2933376384705406 -1.2224197557181862 L 0.28126766918618173 -1.3618652858131486 L -0.6684858135875004 -1.3618652858131486 C -0.7130450069779882 -1.3618652858131486 -0.7494863449205884 -1.3254061455559696 -0.7494863449205884 -1.2808647544800604 L -0.7494863449205884 -0.7076302250458981 C -0.7494863449205884 -0.663088833969989 -0.7130450069779882 -0.62662969371281 -0.6684858135875004 -0.62662969371281 L -0.4539679229141569 -0.62662969371281 L -0.13630342157182174 -0.833136542825738 L 0.18889145883730385 -0.8426251764961855 L 0.16555262442462726 -0.7441249699322345 L 0.17000320306930217 -0.7441249699322345 C 0.23517747674192568 -0.7441249699322345 0.29241191811244827 -0.7084491315165184 0.32317431770444327 -0.6556830711052495 C 0.33373109024961267 -0.6375781171787109 0.3533136362861833 -0.62662969371281 0.37426696054531416 -0.62662969371281 L 0.6684680112729218 -0.62662969371281 C 0.7130272046634096 -0.62662969371281 0.7494685426060099 -0.663088833969989 0.7494685426060099 -0.7076302250458981 L 0.7494685426060099 -1.2808647544800604 C 0.7494685426060099 -1.2944835251327664 0.7460504982068992 -1.3073367962585885 0.7400511181938774 -1.3186234637014846 Z" fill="#a5b2ba" transform="matrix(1,0,0,1,0,0)" fill-rule="nonzero"></path></g><g clip-path="url(#SvgjsClipPath76135c426737c-d072-455a-aac6-01db03585a01)"><path d=" M 0.6684680112729218 -1.3618652858131486 L 0.28126766918618173 -1.3618652858131486 L -0.453967922914157 -0.62662969371281 L -0.37428476285989276 -0.62662969371281 C -0.3533314386007621 -0.62662969371281 -0.33374889256419127 -0.637560314864132 -0.32319212001902176 -0.6556830711052495 C -0.292429720427027 -0.7084669338310969 -0.23519527905650417 -0.7441249699322345 -0.17002100538388087 -0.7441249699322345 L 0.16555262442462726 -0.7441249699322345 L 0.7400511181938774 -1.3186234637014846 C 0.7264145452265927 -1.3442765990093923 0.6994084340107038 -1.3618652858131486 0.6684680112729218 -1.3618652858131486 Z" fill="#eda0a0" transform="matrix(1,0,0,1,0,0)" fill-rule="nonzero"></path></g></g></g></g><defs><clipPath id="SvgjsClipPath76140"><path d=" M -1.2022526116006833 -1.754103682925661 h 2.4045052232013666 v 1.566603682925661 h -2.4045052232013666 Z"></path></clipPath><clipPath id="SvgjsClipPath76135c426737c-d072-455a-aac6-01db03585a01"><path d=" M -1.2022526116006833 -1.754103682925661 L 1.2022526116006833 -1.754103682925661 L 1.2022526116006833 -0.1875 L -1.2022526116006833 -0.1875 Z"></path></clipPath></defs></svg>